Coordinates
version=1
nRows=8
nColumns=63
inDegrees=yes

Units are S.I. units (second, meters, Newtons, ...)
If the header above contains a line with 'inDegrees', this indicates whether rotational values are in degrees (yes) or radians (no).

endheader
time	pelvis_tilt	pelvis_list	pelvis_rotation	pelvis_tx	pelvis_ty	pelvis_tz	hip_flexion_r	hip_adduction_r	hip_rotation_r	knee_angle_r	knee_angle_r_beta	ankle_angle_r	subtalar_angle_r	mtp_angle_r	hip_flexion_l	hip_adduction_l	hip_rotation_l	knee_angle_l	knee_angle_l_beta	ankle_angle_l	subtalar_angle_l	mtp_angle_l	L5_S1_Flex_Ext	L5_S1_Lat_Bending	L5_S1_axial_rotation	L4_L5_Flex_Ext	L4_L5_Lat_Bending	L4_L5_axial_rotation	L3_L4_Flex_Ext	L3_L4_Lat_Bending	L3_L4_axial_rotation	L2_L3_Flex_Ext	L2_L3_Lat_Bending	L2_L3_axial_rotation	L1_L2_Flex_Ext	L1_L2_Lat_Bending	L1_L2_axial_rotation	L1_T12_Flex_Ext	L1_T12_Lat_Bending	L1_T12_axial_rotation	Abs_r3	Abs_r2	Abs_r1	Abs_t1	Abs_t2	neck_flexion	neck_bending	neck_rotation	arm_flex_r	arm_add_r	arm_rot_r	elbow_flex_r	pro_sup_r	wrist_flex_r	wrist_dev_r	arm_flex_l	arm_add_l	arm_rot_l	elbow_flex_l	pro_sup_l	wrist_flex_l	wrist_dev_l
     16.53333333	     -1.83590113	      5.99706209	    -29.42886263	     -1.72728566	      0.84875586	      0.31369951	    -10.42446653	     -9.41711054	     16.59219768	      9.60307389	      0.16760526	     13.57771756	     -9.60080952	      0.00000000	     20.40815256	     -7.56279253	    -20.80741526	     11.78761546	      0.20573270	      6.71536593	    -12.21073791	      0.00000000	     -0.00487412	     -0.85353665	      2.11478691	     -0.00905174	     -1.13520374	      2.24696110	     -0.00800770	     -2.07528900	      2.24696110	     -0.00557064	     -2.07528900	      1.85043855	     -0.00452611	     -1.74053193	      1.71826437	     -0.00278507	     -1.32212827	      1.58609019	     -0.03481538	     -9.65537725	     11.76181038	      0.00000000	      0.00000000	      0.00000000	      0.00000000	      0.00000000	     -0.63292011	      0.89117783	     -1.12144460	     26.43660102	     33.91077725	      0.00000000	      5.00000014	    -15.02216196	      6.80676855	    -48.82441921	     47.20277062	     33.15203870	      0.00000000	      5.00000014
     16.56666667	     -1.85438879	      5.96048067	    -29.39853981	     -1.72727929	      0.84875243	      0.31365700	    -10.45152610	     -9.37232096	     16.64566718	      9.56570326	      0.16695302	     13.58815927	     -9.60053010	      0.00000000	     20.44147721	     -7.61440690	    -20.80241442	     11.85514554	      0.20691132	      6.78815569	    -12.12114397	      0.00000000	     -0.00524224	     -0.84933686	      2.11161181	     -0.00973537	     -1.12961803	      2.24358755	     -0.00861248	     -2.06507765	      2.24358755	     -0.00599136	     -2.06507765	      1.84766034	     -0.00486795	     -1.73196773	      1.71568460	     -0.00299542	     -1.31562280	      1.58370886	     -0.03744480	     -9.60786846	     11.74415142	      0.00000000	      0.00000000	      0.00000000	      0.00000000	      0.00000000	     -0.61348052	      0.84971760	     -1.14281549	     26.39456922	     33.94687582	      0.00000000	      5.00000014	    -15.01198161	      6.80647390	    -48.83033005	     47.12322331	     33.18795392	      0.00000000	      5.00000014
     16.60000000	     -1.83547430	      6.00346058	    -29.48338056	     -1.72730970	      0.84876903	      0.31370009	    -10.38354264	     -9.44490666	     16.53939955	      9.64135127	      0.16827332	     13.67245687	     -9.39425201	      0.00000000	     20.37906794	     -7.56733258	    -20.87563816	     11.74803135	      0.20504183	      6.70141945	    -12.19879239	      0.00000000	     -0.00406642	     -0.85324220	      2.12559336	     -0.00755175	     -1.13481212	      2.25844295	     -0.00668072	     -2.07457308	      2.25844295	     -0.00464751	     -2.07457308	      1.85989419	     -0.00377608	     -1.73993149	      1.72704461	     -0.00232355	     -1.32167216	      1.59419502	     -0.02904604	     -9.65204637	     11.82191262	      0.00000000	      0.00000000	      0.00000000	      0.00000000	      0.00000000	     -0.62707803	      0.90311473	     -1.27380519	     26.42912775	     34.09657995	      0.00000000	      5.00000014	    -14.99723241	      6.80465825	    -48.83102520	     47.12496184	     33.33250665	      0.00000000	      5.00000014
     16.63333333	     -1.83903224	      5.96531152	    -29.43326867	     -1.72724407	      0.84876325	      0.31367790	    -10.42506078	     -9.39834134	     16.55089999	      9.62652181	      0.16801450	     13.65601455	     -9.43849095	      0.00000000	     20.41531568	     -7.61926615	    -20.87951713	     11.86233343	      0.20703678	      6.79853719	    -12.04591475	      0.00000000	     -0.00526180	     -0.84852723	      2.11515470	     -0.00977168	     -1.12854121	      2.24735187	     -0.00864461	     -2.06310910	      2.24735187	     -0.00601371	     -2.06310910	      1.85076037	     -0.00488610	     -1.73031672	      1.71856320	     -0.00300659	     -1.31436867	      1.58636603	     -0.03758449	     -9.59870970	     11.76385591	      0.00000000	      0.00000000	      0.00000000	      0.00000000	      0.00000000	     -0.63992379	      0.92084436	     -1.26833685	     26.42521694	     34.11653643	      0.00000000	      5.00000014	    -14.99767108	      6.84338518	    -48.82442902	     47.11876110	     33.35009898	      0.00000000	      5.00000014
     16.66666667	     -1.88636515	      5.91496412	    -29.40368217	     -1.72732204	      0.84873421	      0.31366271	    -10.46090426	     -9.24617801	     17.42335388	      9.55038064	      0.16668559	     13.22451242	    -10.81940526	      0.00000000	     20.49039881	     -7.67864967	    -20.66029865	     11.93830174	      0.20836267	      6.83711876	    -12.26024971	      0.00000000	     -0.00443827	     -0.84208833	      2.11474608	     -0.00824231	     -1.11997748	      2.24691771	     -0.00729163	     -2.04745357	      2.24691771	     -0.00507250	     -2.04745357	      1.85040282	     -0.00412138	     -1.71718653	      1.71823119	     -0.00253603	     -1.30439483	      1.58605956	     -0.03170212	     -9.52587163	     11.76158330	      0.00000000	      0.00000000	      0.00000000	      0.00000000	      0.00000000	     -0.62092306	      0.83799258	     -1.09193323	     26.38454543	     33.88898236	      0.00000000	      5.00000014	    -14.98701017	      6.82325698	    -48.80629164	     47.12889273	     33.05164748	      0.00000000	      5.00000014
     16.70000000	     -1.88091374	      5.92441489	    -29.38951732	     -1.72730519	      0.84872602	      0.31363091	    -10.47530194	     -9.27512647	     17.25288193	      9.53081651	      0.16634413	     13.26260651	    -10.59426878	      0.00000000	     20.49727263	     -7.67245860	    -20.72592678	     11.94748957	      0.20852303	      6.80236978	    -12.19429868	      0.00000000	     -0.00430552	     -0.84306164	      2.10943591	     -0.00799579	     -1.12127197	      2.24127565	     -0.00707354	     -2.04982006	      2.24127565	     -0.00492078	     -2.04982006	      1.84575642	     -0.00399811	     -1.71917129	      1.71391667	     -0.00246018	     -1.30590247	      1.58207693	     -0.03075392	     -9.53688183	     11.73204967	      0.00000000	      0.00000000	      0.00000000	      0.00000000	      0.00000000	     -0.60978784	      0.83918898	     -1.12773692	     26.40838726	     34.02919677	      0.00000000	      5.00000014	    -15.00123966	      6.82863287	    -48.82329060	     47.15090713	     33.20022908	      0.00000000	      5.00000014
     16.73333333	     -1.85100813	      5.98183219	    -29.35199560	     -1.72721783	      0.84875405	      0.31359692	    -10.49847800	     -9.41511729	     16.33933851	      9.47225157	      0.16532198	     13.62300942	     -9.29180149	      0.00000000	     20.44237360	     -7.59610839	    -20.98825959	     11.84508747	      0.20673578	      6.88189016	    -11.78348594	      0.00000000	     -0.00433929	     -0.85083283	      2.10065308	     -0.00805850	     -1.13160766	      2.23194389	     -0.00712902	     -2.06871494	      2.23194389	     -0.00495938	     -2.06871494	      1.83807144	     -0.00402947	     -1.73501831	      1.70678062	     -0.00247947	     -1.31794005	      1.57548981	     -0.03099513	     -9.62479114	     11.68320222	      0.00000000	      0.00000000	      0.00000000	      0.00000000	      0.00000000	     -0.61939746	      0.89183261	     -1.28275947	     26.39749314	     34.52897873	      0.00000000	      5.00000014	    -15.02471876	      6.82439041	    -48.87727468	     47.18150602	     33.75914263	      0.00000000	      5.00000014
     16.76666667	     -1.85803372	      5.94976802	    -29.37159918	     -1.72724620	      0.84876951	      0.31363659	    -10.49747464	     -9.39172220	     16.28285109	      9.47722782	      0.16540883	     13.64895570	     -9.12994021	      0.00000000	     20.44225133	     -7.64473056	    -21.01183198	     11.87476121	      0.20725368	      6.90155278	    -11.75690953	      0.00000000	     -0.00470870	     -0.84674331	      2.10599114	     -0.00874452	     -1.12616860	      2.23761559	     -0.00773592	     -2.05877168	      2.23761559	     -0.00538157	     -2.05877168	      1.84274225	     -0.00437250	     -1.72667896	      1.71111780	     -0.00269055	     -1.31160539	      1.57949336	     -0.03363375	     -9.57852966	     11.71289094	      0.00000000	      0.00000000	      0.00000000	      0.00000000	      0.00000000	     -0.61343752	      0.87347115	     -1.32630970	     26.38284245	     34.67776769	      0.00000000	      5.00000014	    -15.00054229	      6.81471519	    -48.89922391	     47.12670598	     33.91683277	      0.00000000	      5.00000014
